<mxfile host="app.diagrams.net" modified="2024-03-19T08:08:06.221Z" agent="Mozilla/5.0 (Windows NT 10.0; Win64; x64) AppleWebKit/537.36 (KHTML, like Gecko) Chrome/122.0.0.0 Safari/537.36 Edg/122.0.0.0" version="24.0.7" etag="_a2CmdzRch3Szia6Kz5Q" type="github">
  <diagram name="Page-1" id="1BAX3-LeWGOK-C1ovY1z">
    <mxGraphModel>
      <root>
        <mxCell id="0" />
        <mxCell id="1" parent="0" />
      </root>
    </mxGraphModel>
  </diagram>
</mxfile>
